<svg width="150" height="35" viewBox="0 0 855 103" fill="none" xmlns="http://www.w3.org/2000/svg">
<path d="M62.316 90.24L0.396 53.808V45.6L61.884 12.912V26.304L15.084 49.776L62.316 75.984V90.24ZM793.26 89.232V78.288L843.516 50.064L793.548 24.576V14.352L854.604 46.464V53.376L793.26 89.232Z" fill="#8A8A8A"/>
<path d="M72.54 96V6.288H84.636L103.644 48.336L122.94 6.144H134.892V96H122.364V31.632L106.524 65.76H99.9L84.924 31.92V96H72.54ZM169.884 97.584C162.396 97.584 156.636 95.904 152.604 92.544C148.572 89.088 146.556 84.72 146.556 79.44C146.556 74.736 148.044 70.704 151.02 67.344C153.996 63.888 157.98 61.248 162.972 59.424C168.06 57.504 173.628 56.544 179.676 56.544C181.884 56.544 184.188 56.592 186.588 56.688C189.084 56.784 191.724 57.024 194.508 57.408C193.932 49.728 191.916 44.448 188.46 41.568C185.1 38.688 180.252 37.248 173.916 37.248C170.748 37.248 167.628 37.872 164.556 39.12C161.484 40.272 158.7 42.096 156.204 44.592L151.164 37.968C154.236 34.896 157.788 32.592 161.82 31.056C165.852 29.52 170.124 28.752 174.636 28.752C180.492 28.752 185.58 29.712 189.9 31.632C194.22 33.552 197.58 36.864 199.98 41.568C202.38 46.272 203.58 52.752 203.58 61.008V96H192.348V85.92C190.716 89.088 188.604 91.536 186.012 93.264C183.516 94.896 180.828 96 177.948 96.576C175.164 97.248 172.476 97.584 169.884 97.584ZM156.924 78.864C156.924 82.992 158.268 85.824 160.956 87.36C163.644 88.896 166.956 89.664 170.892 89.664C177.996 89.664 183.612 87.6 187.74 83.472C191.868 79.248 194.124 73.2 194.508 65.328C189.516 64.656 184.86 64.32 180.54 64.32C173.628 64.32 167.964 65.472 163.548 67.776C159.132 70.08 156.924 73.776 156.924 78.864ZM240.156 63.024L231.516 71.088V96H221.004V0.239997H232.812V1.24799C232.236 1.824 231.852 2.448 231.66 3.11999C231.564 3.792 231.516 4.944 231.516 6.57599V60.432L264.492 29.904C265.548 30.096 266.7 30.288 267.948 30.48C269.292 30.576 270.684 30.624 272.124 30.624H275.868L248.22 56.688L280.476 96L267.084 96.576L240.156 63.024ZM322.668 97.44C313.068 97.44 305.292 94.512 299.34 88.656C293.484 82.8 290.556 74.352 290.556 63.312C290.556 55.824 291.9 49.536 294.588 44.448C297.372 39.264 301.02 35.328 305.532 32.64C310.14 29.952 315.228 28.608 320.796 28.608C325.788 28.608 330.3 29.712 334.332 31.92C338.364 34.128 341.58 37.536 343.98 42.144C346.38 46.752 347.58 52.656 347.58 59.856C347.58 60.624 347.532 61.44 347.436 62.304C347.436 63.072 347.388 63.84 347.292 64.608H300.492C300.876 73.056 303.228 79.248 307.548 83.184C311.964 87.12 317.1 89.088 322.956 89.088C329.868 89.088 335.532 86.64 339.948 81.744L345.708 87.36C340.14 94.08 332.46 97.44 322.668 97.44ZM300.924 56.544H337.068C337.068 50.4 335.484 45.552 332.316 42C329.244 38.352 325.164 36.528 320.076 36.528C315.564 36.528 311.484 38.16 307.836 41.424C304.188 44.592 301.884 49.632 300.924 56.544ZM360.54 96V6.288H372.636L391.644 48.336L410.94 6.144H422.892V96H410.364V31.632L394.524 65.76H387.9L372.924 31.92V96H360.54ZM466.668 97.44C457.068 97.44 449.292 94.512 443.34 88.656C437.484 82.8 434.556 74.352 434.556 63.312C434.556 55.824 435.9 49.536 438.588 44.448C441.372 39.264 445.02 35.328 449.532 32.64C454.14 29.952 459.228 28.608 464.796 28.608C469.788 28.608 474.3 29.712 478.332 31.92C482.364 34.128 485.58 37.536 487.98 42.144C490.38 46.752 491.58 52.656 491.58 59.856C491.58 60.624 491.532 61.44 491.436 62.304C491.436 63.072 491.388 63.84 491.292 64.608H444.492C444.876 73.056 447.228 79.248 451.548 83.184C455.964 87.12 461.1 89.088 466.956 89.088C473.868 89.088 479.532 86.64 483.948 81.744L489.708 87.36C484.14 94.08 476.46 97.44 466.668 97.44ZM444.924 56.544H481.068C481.068 50.4 479.484 45.552 476.316 42C473.244 38.352 469.164 36.528 464.076 36.528C459.564 36.528 455.484 38.16 451.836 41.424C448.188 44.592 445.884 49.632 444.924 56.544ZM506.124 96.144V6.288H528.444C536.316 6.288 542.412 7.344 546.732 9.456C551.052 11.568 554.7 14.64 557.676 18.672C560.652 22.704 562.908 27.504 564.444 33.072C566.076 38.544 566.892 44.736 566.892 51.648C566.7 60.768 565.212 68.688 562.428 75.408C559.74 82.032 555.468 87.168 549.612 90.816C543.852 94.368 536.22 96.144 526.716 96.144H506.124ZM519.804 84.912H526.428C536.028 84.912 542.844 81.984 546.876 76.128C551.004 70.272 553.068 62.256 553.068 52.08C552.972 45.072 552.156 39.024 550.62 33.936C549.084 28.752 546.492 24.768 542.844 21.984C539.196 19.104 534.204 17.664 527.868 17.664H519.804V84.912ZM610.668 97.44C601.068 97.44 593.292 94.512 587.34 88.656C581.484 82.8 578.556 74.352 578.556 63.312C578.556 55.824 579.9 49.536 582.588 44.448C585.372 39.264 589.02 35.328 593.532 32.64C598.14 29.952 603.228 28.608 608.796 28.608C613.788 28.608 618.3 29.712 622.332 31.92C626.364 34.128 629.58 37.536 631.98 42.144C634.38 46.752 635.58 52.656 635.58 59.856C635.58 60.624 635.532 61.44 635.436 62.304C635.436 63.072 635.388 63.84 635.292 64.608H588.492C588.876 73.056 591.228 79.248 595.548 83.184C599.964 87.12 605.1 89.088 610.956 89.088C617.868 89.088 623.532 86.64 627.948 81.744L633.708 87.36C628.14 94.08 620.46 97.44 610.668 97.44ZM588.924 56.544H625.068C625.068 50.4 623.484 45.552 620.316 42C617.244 38.352 613.164 36.528 608.076 36.528C603.564 36.528 599.484 38.16 595.836 41.424C592.188 44.592 589.884 49.632 588.924 56.544ZM675.324 96L649.26 30.192H659.628L679.932 81.744L690.588 57.408C692.892 52.128 694.716 47.232 696.06 42.72C697.5 38.208 698.556 34.032 699.228 30.192H709.02C708.252 34.224 707.052 38.64 705.42 43.44C703.788 48.24 701.772 53.424 699.372 58.992L683.388 96H675.324Z" fill="black"/>
<path d="M733.212 102.048L724.716 97.872L769.788 0.239997L778.428 4.704L733.212 102.048Z" fill="#D39538"/>
</svg>
